<svg xmlns="http://www.w3.org/2000/svg" xmlns:xlink="http://www.w3.org/1999/xlink" viewBox="0 0 1000 64.99"><defs><style>.cls-1{fill:none;}.cls-2{opacity:1;}.cls-3{clip-path:url(#clip-path);}.cls-4,.cls-5{fill:#1ecad3;}.cls-4{fill-rule:evenodd;}</style><clipPath id="clip-path"><rect class="cls-1" x="-1400" y="-281.01" width="1200" height="627"/></clipPath></defs><g id="BG_IMAGE" data-name="BG IMAGE"><g class="cls-2"><g class="cls-3"><image id="Football_Player" data-name="Football Player" width="5616" height="3744" transform="translate(-2658.68 -554.54) scale(0.53)" xlink:href="../../../../Graphics/Sports/football-player.png"/></g></g></g><g id="TEXT"><path class="cls-4" d="M187.93,11.76c-1.11-2.89-2-5.19-2-6.16a1.48,1.48,0,0,1,1-1.48,8.52,8.52,0,0,1,2.82-.37c.51,0,.74-.15.74-.52s-.67-.52-2-.52c-2.81,0-6.15.22-6.89.22-.89,0-5.12-.22-8.68-.22-1.19,0-1.93.07-1.93.52,0,.3.15.52.59.52a11.39,11.39,0,0,1,2.82.3c2.6.74,3.71,1.55,5.34,5.71l18.4,46.39c1.41,3.56,3.06,4.6,4,4.6.57,0,2-2.49,3.73-6.68,1.51-3.72,5-11.59,9.17-22.29,3.56-9.22,7.33-18.09,8.14-20.17,2-5,3.12-6.3,4.08-7a6.73,6.73,0,0,1,3.56-.89c.6,0,.89-.15.89-.52s-.44-.52-1.26-.52c-2.15,0-5.34.22-5.78.22-.89,0-5.87-.22-8.83-.22-1.19,0-1.63.15-1.63.6s.37.44.81.44a9.26,9.26,0,0,1,2.82.3,1.82,1.82,0,0,1,1,1.7,10.61,10.61,0,0,1-.66,2.82c-1.63,5.34-11.35,32.15-15.65,42.09l-14.47-38.9Z"/><path class="cls-5" d="M92.36,10.16a32.5,32.5,0,1,1,1.23,45.9,29.4,29.4,0,1,0-1.23-45.9Z"/><path class="cls-5" d="M281,36.44c.34,0,.34-.17.26-.52l-7.56-20.23c-.43-1.13-.87-1.13-1.3,0l-7.12,20.23c-.09.35,0,.52.26.52ZM272.46,5.7c1-2.43,1.3-2.86,1.82-2.86.78,0,1,1,1.82,2.69,1.39,3.13,13.64,33.6,18.32,44.81,2.78,6.59,4.87,7.55,6.52,8.07a10.52,10.52,0,0,0,3,.43c.43,0,.95.18.95.61s-.87.61-1.73.61c-1.13,0-6.78,0-12.07-.17-1.48-.09-2.7-.09-2.7-.52s.18-.35.53-.53a1.38,1.38,0,0,0,.69-2l-6.86-16.93c-.17-.35-.26-.44-.69-.44H264.47a.79.79,0,0,0-.78.61L259.35,51.9a15.07,15.07,0,0,0-1.13,5c0,1.47,1.3,2,2.6,2h.7c.6,0,.78.27.78.61s-.44.61-1.13.61c-1.82,0-6-.26-6.86-.26s-4.6.26-7.73.26c-1,0-1.48-.17-1.48-.61a.68.68,0,0,1,.7-.61,20.62,20.62,0,0,0,2.26-.17c3.47-.43,4.95-3,6.42-6.77l18-46.2Z"/><path class="cls-5" d="M10.68,50c.17,6.08.87,7.9,3,8.42a18,18,0,0,0,3.82.43.6.6,0,0,1,.61.61c0,.44-.52.61-1.39.61-4.34,0-7.38-.26-8.07-.26s-3.91.26-7.39.26C.43,60.06,0,60,0,59.45a.6.6,0,0,1,.61-.61,11.88,11.88,0,0,0,3.12-.43c1.91-.52,2.17-2.52,2.17-9.2V6.92c0-2.95.44-3.73,1-3.73.86,0,2.17,1.47,3,2.25,1.21,1.22,12.33,13,24.14,25.18,7.55,7.82,15.71,16.59,18.06,19l-.78-37c-.09-4.78-.52-6.43-2.87-6.86a24.54,24.54,0,0,0-3.73-.35.6.6,0,0,1-.61-.69c0-.44.61-.52,1.48-.52,3.47,0,7.12.17,8,.17s3.39-.17,6.52-.17c.78,0,1.39.08,1.39.52a.86.86,0,0,1-.87.69,8.4,8.4,0,0,0-1.83.18c-2.51.52-2.69,2-2.69,6.42l-.17,43.24c0,4.87-.09,5.3-.61,5.3-.78,0-1.56-.61-5.82-4.51-.78-.7-11.81-11.55-19.88-20-8.86-9.3-17.45-18.33-19.8-20.93L10.68,50Z"/><path class="cls-5" d="M406.82,38.61c0,7.12.09,12.94.44,16,.26,2.17.43,3.56,2.78,3.91a30.23,30.23,0,0,0,3.38.34.62.62,0,0,1,.7.61c0,.35-.44.61-1.31.61-4.16,0-9-.26-9.46-.26s-5.3.26-7.55.26c-.87,0-1.22-.17-1.22-.61a.59.59,0,0,1,.61-.61,10.48,10.48,0,0,0,2.26-.34c1.56-.35,1.82-1.83,2.08-4,.35-3,.35-8.59.35-15.71V31.41c0-.35-.18-.44-.44-.44H367.58c-.26,0-.44.09-.44.44v7.38c0,7.12,0,12.76.35,15.8.26,2.17.52,3.56,2.78,3.91a31.81,31.81,0,0,0,3.47.34.59.59,0,0,1,.61.61c0,.35-.35.61-1.22.61-4.25,0-9.11-.26-9.46-.26s-5.3.26-7.64.26c-.78,0-1.22-.17-1.22-.61a.6.6,0,0,1,.61-.61,11.11,11.11,0,0,0,2.34-.34c1.48-.35,1.65-1.74,2-3.91.43-3,.43-8.86.43-16v-13c0-11.46,0-13.55-.17-15.89-.17-2.52-.61-3.74-3.12-4.08a23.78,23.78,0,0,0-2.61-.18.73.73,0,0,1-.61-.6c0-.44.35-.61,1.22-.61,3.47,0,8.33.17,8.77.17s5.21-.17,7.55-.17c.87,0,1.22.17,1.22.61a.73.73,0,0,1-.61.6,8.24,8.24,0,0,0-1.91.18c-2.08.43-2.52,1.47-2.69,4.08-.09,2.34-.09,4.6-.09,16.06v1.56c0,.44.18.44.44.44h31.86c.26,0,.44,0,.44-.44V25.76c0-11.46-.09-13.72-.18-16.06-.17-2.52-.52-3.74-3-4.08a23.59,23.59,0,0,0-2.6-.18.65.65,0,0,1-.61-.6c0-.44.35-.61,1.22-.61,3.38,0,8.33.17,8.68.17s5.3-.17,7.55-.17c.87,0,1.31.17,1.31.61a.74.74,0,0,1-.7.6,8.64,8.64,0,0,0-1.91.18c-2,.43-2.43,1.47-2.6,4.08-.18,2.34-.18,4.43-.18,15.89v13Z"/><path class="cls-5" d="M464.57,58c6.86,0,20.67-3.65,20.67-25,0-17.71-10.77-27-22.84-27-12.77,0-22,8-22,24.06,0,17.19,10.33,28,24.14,28ZM462.83,3.19c17.2,0,30.22,10.5,30.22,27.7C493.05,47.38,480.81,61,462.4,61c-20.93,0-29.87-15.72-29.87-29,0-11.89,9.2-28.82,30.3-28.82Z"/><path class="cls-5" d="M576.5,50.51c.26,2.6.78,6.6,3.91,7.64a16.22,16.22,0,0,0,5,.69c.35,0,.6.18.6.53s-.69.69-1.56.69c-1.73,0-10.24-.17-13-.43-1.83-.18-2.17-.44-2.17-.79a.62.62,0,0,1,.52-.6c.43-.09.52-1.22.35-2.61l-3.65-37.34h-.17L547.85,56c-1.57,3.21-2,3.91-2.7,3.91s-1.12-.7-2.6-3.39c-2-3.65-7-13.11-8.94-17.11-2.26-4.68-8.43-17.1-9.73-20.14h-.35l-2.95,33.34c-.09,1.13-.09,2.52-.09,3.74a2.06,2.06,0,0,0,1.83,2.08,12.17,12.17,0,0,0,2.95.43.66.66,0,0,1,.61.53c0,.52-.52.69-1.39.69-2.87,0-6.51-.26-7.12-.26s-4.34.26-6.43.26c-.78,0-1.3-.17-1.3-.69,0-.26.35-.53.78-.53a14,14,0,0,0,2.26-.26c2.52-.43,2.6-3.12,3-5.9l5.56-48.19c.09-.78.43-1.3.87-1.3a1.74,1.74,0,0,1,1.56,1.12l23.1,45.85L569,4.4c.34-.69.69-1.21,1.21-1.21s1,.6,1.13,2l5.21,45.33Z"/><path class="cls-5" d="M608.2,25.59c0-11.46,0-13.55-.18-15.89-.17-2.52-.6-3.74-3.12-4.08a23.78,23.78,0,0,0-2.61-.18.72.72,0,0,1-.6-.6c0-.44.34-.61,1.21-.61,3.47,0,8.43.17,8.86.17s16.5.09,18.23,0c1.48-.09,2.87-.35,3.48-.43a4.55,4.55,0,0,1,1-.35c.26,0,.35.35.35.69,0,.53-.44,1.39-.61,3.48-.09.69-.26,4-.44,4.86-.08.35-.34.78-.69.78s-.61-.35-.61-.95a8.32,8.32,0,0,0-.43-2.61c-.52-1.21-1.3-1.74-5.47-2.26-1.31-.17-10.16-.26-11-.26-.35,0-.43.26-.43.78V28.19c0,.52,0,.78.43.78,1,0,11,0,12.76-.17s3-.26,3.74-1c.52-.52.87-1,1.13-1s.43.18.43.61-.43,1.65-.61,4.08c-.17,1.48-.35,4.26-.35,4.78s-.17,1.39-.69,1.39c-.35,0-.52-.26-.52-.7a6.52,6.52,0,0,0-.35-2.43c-.26-1-1-1.91-3.91-2.26-2.08-.26-10.24-.34-11.54-.34-.44,0-.52.26-.52.52v6.16c0,2.52-.09,11.12,0,12.59.17,4.95,1.56,5.91,9.11,5.91,2,0,5.65,0,7.64-.78s3-2.17,3.48-5.13c.17-.86.34-1.12.78-1.12s.52.6.52,1.12a62,62,0,0,1-1,7.12c-.52,1.91-1.3,1.91-4.26,1.91-5.73,0-10.16-.17-13.28-.26s-5.21-.17-6.34-.17c-.17,0-1.65,0-3.3.09-1.48.08-3.21.17-4.43.17-.78,0-1.21-.17-1.21-.61a.59.59,0,0,1,.6-.61c.7,0,1.65-.26,2.35-.34,1.47-.26,1.65-1.74,2-3.91.44-3,.44-8.86.44-16v-13Z"/><path class="cls-5" d="M708.58,38.79c0,10.85.17,15.28,1.56,16.58,1.22,1.22,4.17,1.74,10.16,1.74,4,0,7.38-.09,9.21-2.26a9.08,9.08,0,0,0,1.82-4.17c.09-.52.35-1,.78-1s.52.35.52,1.13a46.38,46.38,0,0,1-1.13,7.38c-.52,1.73-.78,2-4.86,2-5.47,0-9.73-.08-13.29-.26s-6.07-.17-8.33-.17c-.35,0-1.65,0-3.13.09s-3.21.17-4.42.17c-.79,0-1.22-.17-1.22-.61a.59.59,0,0,1,.61-.61,11.11,11.11,0,0,0,2.34-.34c1.48-.35,1.65-1.74,2-3.91.43-3,.43-8.86.43-16v-13c0-11.46,0-13.55-.17-15.89-.17-2.52-.61-3.74-3.13-4.08a23.59,23.59,0,0,0-2.6-.18.73.73,0,0,1-.61-.6c0-.44.35-.61,1.22-.61,3.47,0,8.25.17,8.68.17s6.08-.17,8.42-.17c.78,0,1.22.17,1.22.61,0,.26-.35.52-.61.52-.52,0-1.65.08-2.52.17-2.26.43-2.69,1.56-2.86,4.17-.09,2.34-.09,4.43-.09,15.89v13.2Z"/><path class="cls-5" d="M778.22,58c6.86,0,20.67-3.65,20.67-25,0-17.71-10.77-27-22.84-27-12.76,0-22,8-22,24.06,0,17.19,10.34,28,24.14,28ZM776.49,3.19c17.19,0,30.21,10.5,30.21,27.7C806.7,47.38,794.46,61,776.05,61c-20.93,0-29.87-15.72-29.87-29,0-11.89,9.21-28.82,30.31-28.82Z"/><path class="cls-5" d="M852.29,36.44c.35,0,.35-.17.26-.52L845,15.69c-.43-1.13-.87-1.13-1.3,0l-7.12,20.23c-.09.35,0,.52.26.52ZM843.78,5.7c1-2.43,1.31-2.86,1.83-2.86.78,0,1,1,1.82,2.69,1.39,3.13,13.63,33.6,18.32,44.81,2.78,6.59,4.86,7.55,6.51,8.07a10.52,10.52,0,0,0,3,.43c.44,0,1,.18,1,.61s-.87.61-1.74.61c-1.13,0-6.77,0-12.07-.17-1.47-.09-2.69-.09-2.69-.52s.17-.35.52-.53a1.38,1.38,0,0,0,.7-2l-6.86-16.93c-.18-.35-.26-.44-.7-.44H835.8a.81.81,0,0,0-.79.61L830.67,51.9a15.33,15.33,0,0,0-1.13,5c0,1.47,1.31,2,2.61,2h.69c.61,0,.78.27.78.61s-.43.61-1.12.61c-1.83,0-6-.26-6.86-.26s-4.61.26-7.73.26c-1,0-1.48-.17-1.48-.61a.68.68,0,0,1,.7-.61,20.27,20.27,0,0,0,2.25-.17c3.48-.43,5-3,6.43-6.77l18-46.2Z"/><path class="cls-5" d="M898.23,50c.17,6.08.87,7.9,2.95,8.42a18,18,0,0,0,3.82.43.6.6,0,0,1,.61.61c0,.44-.52.61-1.39.61-4.34,0-7.38-.26-8.07-.26s-3.91.26-7.38.26c-.79,0-1.22-.09-1.22-.61a.6.6,0,0,1,.61-.61,11.83,11.83,0,0,0,3.12-.43c1.91-.52,2.17-2.52,2.17-9.2V6.92c0-2.95.44-3.73,1-3.73.86,0,2.17,1.47,3,2.25,1.21,1.22,12.33,13,24.14,25.18,7.55,7.82,15.71,16.59,18.06,19l-.78-37c-.09-4.78-.52-6.43-2.87-6.86a24.65,24.65,0,0,0-3.73-.35.6.6,0,0,1-.61-.69c0-.44.61-.52,1.48-.52,3.47,0,7.12.17,8,.17s3.39-.17,6.52-.17c.78,0,1.39.08,1.39.52a.86.86,0,0,1-.87.69,8.4,8.4,0,0,0-1.83.18c-2.51.52-2.69,2-2.69,6.42l-.17,43.24c0,4.87-.09,5.3-.61,5.3-.78,0-1.56-.61-5.82-4.51-.78-.7-11.81-11.55-19.88-20-8.86-9.3-17.46-18.33-19.8-20.93L898.23,50Z"/><path class="cls-5" d="M969.61,59c-1-.52-1.13-.78-1.13-2.78,0-3.65.35-6.6.43-7.81,0-.79.18-1.22.61-1.22s.7.26.7.87a11.06,11.06,0,0,0,.26,2.69c1.21,5.38,6.94,7.29,12.07,7.29,7.55,0,11.46-4.25,11.46-9.81,0-5.3-2.87-7.81-9.64-12.85l-3.47-2.6C972.65,26.63,970,22.11,970,17c0-8.68,6.86-13.89,16.93-13.89a36.55,36.55,0,0,1,7.9.87,10.11,10.11,0,0,0,2.69.34c.61,0,.78.09.78.53s-.34,2.77-.34,7.81c0,1.13-.09,1.65-.61,1.65s-.61-.35-.7-1a13.2,13.2,0,0,0-1.13-3.65c-.52-.87-3-3.65-9.89-3.65-5.56,0-10.16,2.78-10.16,8,0,4.69,2.34,7.38,9.9,12.5L987.5,28c9.29,6.34,12.5,11.46,12.5,17.8,0,4.34-1.65,9-7.12,12.59-3.21,2.08-8,2.61-12.16,2.61-3.56,0-8-.53-11.11-2Z"/><path class="cls-5" d="M302.44,6.69h.76c.89,0,1.61-.3,1.61-1s-.46-1.06-1.48-1.06a4,4,0,0,0-.89.08v2Zm-.05,4h-1.61v-7a14.8,14.8,0,0,1,2.67-.21,4.3,4.3,0,0,1,2.42.51,1.94,1.94,0,0,1,.68,1.53,1.77,1.77,0,0,1-1.44,1.61V7.2a2,2,0,0,1,1.27,1.69,5.58,5.58,0,0,0,.51,1.75h-1.74a6.14,6.14,0,0,1-.55-1.7c-.13-.77-.55-1.1-1.44-1.1h-.77v2.8ZM298.11,7a5.4,5.4,0,0,0,5.43,5.56A5.34,5.34,0,0,0,308.85,7a5.37,5.37,0,1,0-10.74,0Zm12.52,0a7.16,7.16,0,1,1-7.13-7,7,7,0,0,1,7.13,7Z"/></g></svg>